<svg width="64" height="64" viewBox="0 0 64 64" fill="none" xmlns="http://www.w3.org/2000/svg">
  <rect x="6" y="6" width="52" height="52" rx="16" fill="#7B463C"/>
  <path
    d="M37.5 13.5C28 13.5 19.5 21.1 19.5 31.2C19.5 41.8 29 48.5 38.6 48.5C44.1 48.5 48.6 45.8 51 41.7C42.3 42.4 35.8 38.8 31.9 33.7C27.7 28.2 27 21.1 29.6 15.3C31.6 14.2 34.2 13.5 37.5 13.5Z"
    fill="#F8F1ED"
  />
  <path
    d="M24 40.5C29.5 33.3 36.4 28.7 45.5 25.7"
    stroke="#7B463C"
    stroke-width="4"
    stroke-linecap="round"
  />
  <path
    d="M27.5 31.5C31 27.4 35.5 24.9 40.8 23.7"
    stroke="#7B463C"
    stroke-width="3"
    stroke-linecap="round"
    opacity="0.65"
  />
</svg>
